# AST/ASF file generated using VICON BodyLanguage
# -----------------------------------------------
:version 1.10
:name VICON
:units
  mass 1.0
  length 0.45
  angle deg
:documentation
   .ast/.asf automatically generated from VICON data using
   VICON BodyBuilder and BodyLanguage model FoxedUp or BRILLIANT.MOD
:root
   order TX TY TZ RX RY RZ
   axis XYZ
   position 0 0 0  
   orientation 0 0 0 
:bonedata
  begin
     id 1 
     name lhipjoint
     direction 0.662698 -0.695252 0.27831 
     length 2.53073 
     axis 0 0 0  XYZ
  end
  begin
     id 2 
     name lfemur
     direction 0.34202 -0.939693 0  
     length 7.16147  
     axis 0 0 20  XYZ
    dof rx ry rz
    limits (-160.0 20.0)
           (-70.0 70.0)
           (-60.0 70.0)
  end
  begin
     id 3 
     name ltibia
     direction 0.34202 -0.939693 0   
     length 7.63967   
     axis 0 0 20   XYZ
    dof rx
    limits (-10.0 170.0)
  end
  begin
     id 4 
     name lfoot
     direction 0.0938457 -0.257721 0.961651   
     length 1.89793   
     axis -90 7.62852e-016 20   XYZ
    dof rx rz
    limits (-45.0 90.0)
           (-70.0 20.0)
  end
  begin
     id 5 
     name ltoes
     direction -0.00116841 -0.0030592 0.999995   
     length 0.955649   
     axis -90 7.62852e-016 20   XYZ
    dof rx
    limits (-90.0 20.0)
  end
  begin
     id 6 
     name rhipjoint
     direction -0.649445 -0.705948 0.282592   
     length 2.49238  
     axis 0 0 0  XYZ 
  end
  begin
     id 7 
     name rfemur
     direction -0.34202 -0.939693 0   
     length 6.90728   
     axis 0 0 -20   XYZ
    dof rx ry rz
    limits (-160.0 20.0)
           (-70.0 70.0)
           (-70.0 60.0)
  end
  begin
     id 8 
     name rtibia
     direction -0.34202 -0.939693 0   
     length 7.72868   
     axis 0 0 -20   XYZ
    dof rx
    limits (-10.0 170.0)
 end
 begin
     id 9 
     name rfoot
     direction -0.0920068 -0.252865 0.963117   
     length 1.97476  
     axis -90 -7.62852e-016 -20   XYZ
    dof rx rz
    limits (-45.0 90.0)
           (-20.0 70.0)
  end
  begin
     id 10 
     name rtoes
     direction 0.000391322 0.00230649 0.999997   
     length 0.992641   
     axis -90 -7.62852e-016 -20   XYZ
    dof rx
    limits (-90.0 20.0)
  end
  begin
     id 11 
     name lowerback
     direction -0.00875327 0.998321 -0.0572635   
     length 2.20024   
     axis 0 0 0   XYZ
    dof rx ry rz
    limits (-20.0 45.0)
           (-30.0 30.0)
           (-30.0 30.0)
  end
  begin
     id 12 
     name upperback
     direction 0.00753931 0.999972 -0.000360425   
     length 2.20538   
     axis 0 0 0   XYZ
    dof rx ry rz
    limits (-20.0 45.0)
           (-30.0 30.0)
           (-30.0 30.0)
  end
  begin
     id 13 
     name thorax
     direction 0.0117767 0.999601 0.0256663   
     length 2.21508   
     axis 0 0 0   XYZ
    dof rx ry rz
    limits (-20.0 45.0)
           (-30.0 30.0)
           (-30.0 30.0)
  end
  begin
     id 14 
     name lowerneck
     direction 0.060228 0.994909 0.0807986   
     length 1.7607   
     axis 0 0 0   XYZ
    dof rx ry rz
    limits (-20.0 45.0)
           (-30.0 30.0)
           (-30.0 30.0)
  end
  begin
     id 15 
     name upperneck
     direction -0.0563647 0.959594 -0.275685   
     length 1.75612   
     axis 0 0 0   XYZ
    dof rx ry rz
    limits (-20.0 45.0)
           (-30.0 30.0)
           (-30.0 30.0)
  end
  begin
     id 16
     name head
     direction -0.0161544 0.99458 -0.102714  
     length 1.79288  
     axis 0 0 0   XYZ
    dof rx ry rz
    limits (-20.0 45.0)
           (-30.0 30.0)
           (-30.0 30.0)
  end
  begin
     id 17 
     name lclavicle
     direction 0.93913 0.332189 -0.087669  
     length 3.52087  
     axis 0 0 0   XYZ
    dof ry rz
    limits (-20.0 10.0)
           (0.0 20.0)
  end
  begin
     id 18 
     name lhumerus
     direction 1 -4.48974e-011 -2.70836e-027   
     length 5.35289   
     axis -180 -30 -90   XYZ
    dof rx ry rz
    limits (-60.0 90.0)
           (-90.0 90.0)
           (-90.0 90.0)
  end
  begin
     id 19
     name lradius
     direction 1 -4.48961e-011 -9.76021e-027   
     length 3.27727   
     axis -180 -30 -90   XYZ
    dof rx
    limits (-10.0 170.0)
  end
  begin
     id 20
     name lwrist
     direction 1 -4.49103e-011 -2.23668e-026   
     length 1.63864   
     axis 1.44924e-014 90 90   XYZ
    dof ry
    limits (-180.0 0.0)
 end
  begin
     id 21 
     name lhand
     direction 1 3.0697e-005 0.000161777   
     length 0.54443   
     axis 2.85318e-014 90 90   XYZ
    dof rx rz
    limits (-90.0 90.0)
           (-45.0 45.0)
  end
  begin
     id 22 
     name lfingers
     direction 1 -4.49027e-011 -8.9447e-026   
     length 0.438912   
     axis 5.70628e-014 90 90   XYZ
    dof rx
    limits (0.0 90.0)
  end
  begin
     id 23
     name lthumb
     direction 0.707058 2.6516e-005 0.707156   
     length 0.630274   
     axis -90 45 -3.53137e-014   XYZ
    dof rx rz
    limits (-45.0 45.0)
           (-45.0 45.0)
  end
  begin
     id 24 
     name rclavicle
     direction -0.95274 0.284984 -0.105215   
     length 3.43401  
     axis 0 0 0   XYZ 
    dof ry rz
    limits (-10.0 20.0)
           (-20.0 0.0)
  end
  begin
     id 25 
     name rhumerus
     direction -0.999999 -0.000575019 -0.00106829  
     length 5.52077   
     axis -180 30 90   XYZ
    dof rx ry rz
    limits (-90.0 60.0)
           (-90.0 90.0)
           (-90.0 90.0)
  end
  begin
     id 26 
     name rradius
     direction -1 -4.4879e-011 -6.35415e-027   
     length 3.32364   
     axis -180 30 90   XYZ
    dof rx
    limits (-10.0 170.0)
  end
  begin
     id 27 
     name rwrist
     direction -1 -4.49048e-011 -9.98542e-027   
     length 1.66182   
     axis 6.32482e-015 -90 -90   XYZ
    dof ry
    limits (-180.0 0.0)
  end
  begin
     id 28
     name rhand
     direction -1 -4.48978e-011 -1.99771e-026   
     length 0.732235   
     axis 1.27479e-014 -90 -90   XYZ
    dof rx rz
    limits (-90.0 90.0)
           (-45.0 45.0)
  end
  begin
     id 29
     name rfingers
     direction -1 -4.49144e-011 -3.99245e-026   
     length 0.590347   
     axis 2.5496e-014 -90 -90   XYZ
    dof rx
    limits (0.0 90.0)
  end
  begin
     id 30
     name rthumb
     direction -0.707107 -6.35121e-011 0.707107   
     length 0.847624   
     axis -90 -45 -2.82974e-014   XYZ
    dof rx rz
    limits (-45.0 45.0)
           (-45.0 45.0)
  end
:hierarchy
  begin
    root lhipjoint rhipjoint lowerback
    lhipjoint lfemur
    lfemur ltibia
    ltibia lfoot
    lfoot ltoes
    rhipjoint rfemur
    rfemur rtibia
    rtibia rfoot
    rfoot rtoes
    lowerback upperback
    upperback thorax
    thorax lowerneck lclavicle rclavicle
    lowerneck upperneck
    upperneck head
    lclavicle lhumerus
    lhumerus lradius
    lradius lwrist
    lwrist lhand lthumb
    lhand lfingers
    rclavicle rhumerus
    rhumerus rradius
    rradius rwrist
    rwrist rhand rthumb
    rhand rfingers
  end

#!OML:ASF G:\Work\Work\Patient Classification 1\Elijah\terrain1\Elijah.ASF
:FULLY-SPECIFIED
:DEGREES
417
root 14.0698 20.654 28.9997 4.93606 9.64429 2.15421
lowerback 3.37063 0.240575 -1.16869
upperback 0.158308 0.281647 0.306723
thorax -1.73405 0.151043 0.956295
lowerneck -8.85935 15.5546 12.7001
upperneck 34.1576 25.772 -12.6112
head 17.6483 11.1858 -2.49914
rclavicle 1.03368e-014 -5.96354e-015
rhumerus -46.315 -16.6132 -69.6607
rradius 21.6454
rwrist 9.37146
rhand -9.76852 19.8692
rfingers 7.12502
rthumb 16.2065 -9.47341
lclavicle 1.03368e-014 -5.96354e-015
lhumerus -34.3461 -1.94698 83.7161
lradius 57.0578
lwrist 6.15449
lhand -12.2878 24.8379
lfingers 7.12502
lthumb 13.7796 54.3615
rfemur -10.6413 -6.19526 19.0869
rtibia 2.35574
rfoot 19.2481 -10.5251
rtoes -17.1818
lfemur -14.39 2.62541 -21.5099
ltibia 59.2232
lfoot -13.9865 -17.4243
ltoes -2.80904
418
root 14.0379 20.5537 29.1017 4.97508 9.70601 2.16842
lowerback 4.0589 0.426513 -1.21487
upperback -0.381076 0.517616 0.336583
thorax -2.68124 0.278082 0.99463
lowerneck -7.93631 15.7631 14.148
upperneck 34.0728 26.3645 -13.607
head 18.0295 11.5619 -3.03038
rclavicle -1.49585e-014 1.15295e-014
rhumerus -47.2269 -16.2784 -69.3048
rradius 21.8527
rwrist 8.92333
rhand -9.74851 19.6259
rfingers 7.12502
rthumb 16.2258 -9.7151
lclavicle -1.49585e-014 1.15295e-014
lhumerus -34.8831 -2.62 83.9288
lradius 57.2826
lwrist 6.66423
lhand -12.1575 25.7977
lfingers 7.12502
lthumb 13.9052 55.3128
rfemur -9.75538 -6.23892 19.1628
rtibia -3.18055e-015
rfoot 20.5968 -10.5283
rtoes -16.1914
lfemur -14.9795 3.17469 -21.1568
ltibia 60.7918
lfoot -14.6958 -17.4563
ltoes -7.38453
419
root 14.0176 20.4547 29.2717 5.05881 10.0109 2.69747
lowerback 2.52407 0.360624 -1.91595
upperback 0.423823 0.432894 0.325705
thorax -0.997064 0.223179 1.39333
lowerneck -8.58393 15.8908 13.8682
upperneck 33.6404 26.4663 -13.7058
head 17.9315 11.5249 -2.93995
rclavicle 2.18663e-014 6.36111e-015
rhumerus -46.0759 -16.622 -69.3369
rradius 21.7027
rwrist 8.72336
rhand -9.84319 19.4233
rfingers 7.12502
rthumb 16.1347 -9.92514
lclavicle 2.18663e-014 6.36111e-015
lhumerus -33.8999 -2.40484 83.9444
lradius 57.6891
lwrist 6.87205
lhand -11.9926 26.2462
lfingers 7.12502
lthumb 14.0642 55.7503
rfemur -9.67133 -6.59797 18.6222
rtibia 1.66979e-014
rfoot 20.9342 -9.30465
rtoes -17.6973
lfemur -14.8342 3.23175 -21.4077
ltibia 61.926
lfoot -15.0722 -17.8759
ltoes -6.90617
420
root 13.9618 20.3301 29.4074 4.97269 9.51029 1.70151
lowerback 2.77767 0.775124 -1.26699
upperback -0.00289268 1.002 0.593884
thorax -1.5921 0.512542 1.27767
lowerneck -8.40383 15.7035 13.6505
upperneck 33.8675 26.0666 -13.1623
head 17.7507 11.4089 -2.80866
rclavicle -2.03754e-014 -1.23246e-014
rhumerus -47.0338 -17.0295 -68.6787
rradius 22.0107
rwrist 8.67333
rhand -9.78852 19.2391
rfingers 7.12502
rthumb 16.1873 -10.105
lclavicle -2.03754e-014 -1.23246e-014
lhumerus -34.7185 -3.04023 84.0437
lradius 58.5785
lwrist 7.05982
lhand -11.5512 28.145
lfingers 7.12502
lthumb 14.4895 57.6191
rfemur -9.92384 -5.9266 19.9697
rtibia 1.43125e-014
rfoot 21.4125 -8.59359
rtoes -18.5161
lfemur -15.2025 4.14711 -19.7939
ltibia 63.5775
lfoot -15.3122 -18.5639
ltoes -5.63689
421
root 13.9984 20.2227 29.5876 4.8626 10.5915 2.35286
lowerback 1.42624 0.457724 -1.22664
upperback 0.785029 0.5963 0.398504
thorax -0.0125301 0.294069 1.0868
lowerneck -9.01917 15.8755 13.4868
upperneck 33.4257 26.2822 -13.3758
head 17.7169 11.4236 -2.75544
rclavicle -8.05078e-015 -1.78906e-014
rhumerus -46.1636 -17.6007 -68.4737
rradius 22.0523
rwrist 8.63975
rhand -9.62979 19.1839
rfingers 7.12502
rthumb 16.3401 -10.1478
lclavicle -8.05078e-015 -1.78906e-014
lhumerus -34.2308 -2.72014 84.0283
lradius 58.9167
lwrist 7.11567
lhand -11.4419 26.9993
lfingers 7.12502
lthumb 14.5947 56.4658
rfemur -9.33335 -7.12839 19.0651
rtibia -1.82882e-014
rfoot 21.8116 -7.39522
rtoes -19.925
lfemur -14.4308 3.09495 -20.4881
ltibia 64.5516
lfoot -15.3309 -18.7034
ltoes -2.65545
422
root 14.0197 20.1348 29.6564 5.1466 11.3858 1.92222
lowerback 2.43374 0.361496 0.17784
upperback -0.129593 0.491616 0.292718
thorax -1.49774 0.245282 0.181998
lowerneck -8.41407 15.8421 13.9073
upperneck 33.6747 26.2117 -13.1766
head 17.7265 11.5061 -2.80106
rclavicle 1.99779e-014 -1.07344e-014
rhumerus -47.4218 -17.6092 -67.9288
rradius 22.3938
rwrist 8.10096
rhand -9.51707 19.0609
rfingers 7.12502
rthumb 16.4487 -10.2618
lclavicle 1.99779e-014 -1.07344e-014
lhumerus -35.7083 -2.94859 84.0301
lradius 59.5218
lwrist 7.49196
lhand -11.5738 26.0174
lfingers 7.12502
lthumb 14.4677 55.4931
rfemur -9.83109 -7.907 19.5122
rtibia -4.05521e-014
rfoot 22.4524 -6.5314
rtoes -20.0644
lfemur -15.2273 2.72956 -19.9542
ltibia 66.0943
lfoot -14.911 -18.901
ltoes -1.323
423
root 14.0156 20.0231 29.8474 5.27321 11.5208 2.50867
lowerback 1.21268 0.385936 -0.375956
upperback 0.295852 0.511037 0.244995
thorax -0.382367 0.255858 0.453514
lowerneck -8.54895 16.1207 14.3441
upperneck 33.2712 26.7267 -13.7872
head 17.8815 11.7024 -2.9529
rclavicle 1.15792e-014 -7.55382e-015
rhumerus -46.9832 -17.8243 -67.6912
rradius 22.588
rwrist 7.71389
rhand -9.52186 18.8059
rfingers 7.12502
rthumb 16.444 -10.5171
lclavicle 1.15792e-014 -7.55382e-015
lhumerus -35.7691 -2.51896 84.1319
lradius 60.0108
lwrist 7.99673
lhand -12.0858 24.7603
lfingers 7.12502
lthumb 13.9743 54.2706
rfemur -9.54419 -8.12005 18.8289
rtibia -1.27222e-014
rfoot 23.0803 -6.4442
rtoes -18.4653
lfemur -14.6587 2.87766 -20.4862
ltibia 67.1515
lfoot -15.892 -18.4778
ltoes -4.48358
424
root 13.9522 19.8796 29.9659 5.12928 11.4653 1.49712
lowerback 1.32658 0.576919 0.238642
upperback 0.194511 0.776356 0.602888
thorax -0.549496 0.3882 0.469268
lowerneck -8.56869 16.0693 14.1872
upperneck 33.0242 26.5657 -13.6892
head 17.6559 11.642 -2.92951
rclavicle 3.03147e-015 -1.35174e-014
rhumerus -47.0553 -17.9681 -67.495
rradius 22.7684
rwrist 7.06146
rhand -9.51551 18.596
rfingers 7.12502
rthumb 16.4502 -10.7265
lclavicle 3.03147e-015 -1.35174e-014
lhumerus -35.9941 -2.48611 84.1356
lradius 60.3637
lwrist 8.05698
lhand -12.1424 24.4068
lfingers 7.12502
lthumb 13.9197 53.9209
rfemur -9.49083 -7.88186 20.2505
rtibia -3.18055e-014
rfoot 23.7518 -6.80466
rtoes -14.4056
lfemur -15.5515 3.61008 -18.6852
ltibia 69.2484
lfoot -15.7053 -19.1798
ltoes -3.47864
425
root 13.9169 19.7666 30.182 4.98077 11.713 1.14945
lowerback -0.0494181 0.546237 0.226517
upperback 0.705834 0.722576 0.806297
thorax 0.742209 0.360115 0.703031
lowerneck -8.65478 16.3566 14.6121
upperneck 32.3628 27.014 -14.2942
head 17.6417 11.8222 -3.09208
rclavicle -2.59414e-014 -9.93923e-015
rhumerus -46.4918 -18.2733 -67.491
rradius 22.8454
rwrist 6.36706
rhand -9.4655 18.5336
rfingers 7.12502
rthumb 16.4983 -10.785
lclavicle -2.59414e-014 -9.93923e-015
lhumerus -35.5288 -2.02858 83.9377
lradius 60.2087
lwrist 8.14743
lhand -12.2247 23.0399
lfingers 7.12502
lthumb 13.8404 52.5594
rfemur -8.84066 -8.06681 20.7571
rtibia -1.98785e-014
rfoot 24.091 -6.45249
rtoes -12.3254
lfemur -15.2089 3.76965 -17.7537
ltibia 70.7197
lfoot -15.4758 -20.0189
ltoes 0.00251418
426
root 13.8049 19.5995 30.2823 4.65424 10.4487 0.0680396
lowerback 1.57941 1.2004 0.311219
upperback -0.173591 1.61991 1.18334
thorax -1.08827 0.811522 0.996438
lowerneck -7.54834 16.5074 16.0243
upperneck 32.12 27.463 -15.1267
head 17.8439 12.1736 -3.59059
rclavicle -2.80286e-014 -1.98785e-014
rhumerus -47.8267 -18.1155 -67.101
rradius 23.2537
rwrist 5.2931
rhand -9.39397 18.3851
rfingers 7.12502
rthumb 16.5672 -10.9277
lclavicle -2.80286e-014 -1.98785e-014
lhumerus -36.961 -2.19371 83.8652
lradius 60.8207
lwrist 8.30274
lhand -12.0741 23.0742
lfingers 7.12502
lthumb 13.9856 52.5837
rfemur -8.78333 -6.57004 22.4101
rtibia 1.03368e-014
rfoot 24.6668 -7.90356
rtoes -7.27439
lfemur -15.9144 5.85232 -15.55
ltibia 73.0304
lfoot -14.8474 -21.2255
ltoes 1.19918
427
root 13.8482 19.473 30.4322 5.43848 11.673 1.77152
lowerback -0.290842 0.826181 -0.552346
upperback 0.584582 1.1007 0.729194
thorax 0.736383 0.544971 1.06567
lowerneck -8.72901 16.5548 14.9736
upperneck 31.5209 27.341 -14.9883
head 17.5163 11.9523 -3.31056
rclavicle 2.27608e-014 -4.37326e-015
rhumerus -46.1368 -18.2602 -67.5114
rradius 23.106
rwrist 4.19336
rhand -9.40987 18.0047
rfingers 7.12502
rthumb 16.5519 -11.3093
lclavicle 2.27608e-014 -4.37326e-015
lhumerus -35.7923 -1.48639 83.945
lradius 60.6371
lwrist 8.34481
lhand -12.2668 23.1843
lfingers 7.12502
lthumb 13.7999 52.7066
rfemur -8.74324 -8.02015 20.478
rtibia 2.62396e-014
rfoot 25.9548 -6.25816
rtoes -9.98742
lfemur -16.2859 4.54162 -17.5842
ltibia 74.4203
lfoot -14.7137 -20.7309
ltoes 3.47237
428
root 13.7676 19.3024 30.6017 4.42731 11.0776 0.0236788
lowerback 1.22008 1.34432 0.666756
upperback -0.209305 1.81397 1.17356
thorax -0.915114 0.906609 0.791336
lowerneck -8.09025 16.189 14.5853
upperneck 31.9459 26.6059 -13.9572
head 17.1 11.764 -3.10347
rclavicle -7.45443e-015 3.18055e-015
rhumerus -47.8189 -17.8588 -67.2216
rradius 23.3955
rwrist 2.96684
rhand -9.50333 17.6909
rfingers 7.12502
rthumb 16.4619 -11.6307
lclavicle -7.45443e-015 3.18055e-015
lhumerus -37.7306 -2.05373 83.9029
lradius 60.922
lwrist 8.60441
lhand -12.5094 23.5095
lfingers 7.12502
lthumb 13.5661 53.0475
rfemur -7.60524 -7.18368 22.6184
rtibia 3.57812e-015
rfoot 27.1248 -6.38451
rtoes -8.13228
lfemur -15.8572 6.08684 -14.5921
ltibia 76.5687
lfoot -14.4803 -21.8133
ltoes 3.57157
